<svg width="269" height="126" viewBox="0 0 269 126" fill="none" xmlns="http://www.w3.org/2000/svg">
<g clip-path="url(#clip0_3022_5735)">
<path d="M182.805 42.9882C174.448 48.1765 169.287 57.0706 169.287 66.9529C169.287 78.0706 175.923 88.2 186 92.4C184.034 98.8235 181.084 104.753 177.398 110.188C171.99 117.847 166.337 125.753 157.981 125.753C149.624 125.753 147.166 120.812 137.335 120.812C127.749 120.812 124.308 126 116.443 126C108.578 126 103.171 118.835 97.0265 109.941C88.9157 97.5882 84.2458 83.2588 84 68.1882C84 43.7294 99.7301 30.6353 115.46 30.6353C123.817 30.6353 130.699 36.0706 135.86 36.0706C140.776 36.0706 148.641 30.3882 157.981 30.3882C167.812 30.1412 177.152 34.8353 182.805 42.9882ZM153.557 20.0118C157.735 15.0706 159.947 8.89412 160.193 2.47059C160.193 1.72941 160.193 0.741176 159.947 0C152.819 0.741176 146.183 4.2 141.513 9.63529C137.335 14.3294 134.877 20.2588 134.631 26.6824C134.631 27.4235 134.631 28.1647 134.877 28.9059C135.369 28.9059 136.106 29.1529 136.598 29.1529C143.234 28.6588 149.378 25.2 153.557 20.0118Z" fill="white"/>
</g>
<defs>
<clipPath id="clip0_3022_5735">
<rect width="102" height="126" fill="white" transform="translate(84)"/>
</clipPath>
</defs>
</svg>
