<svg width="269" height="126" viewBox="0 0 269 126" fill="none" xmlns="http://www.w3.org/2000/svg">
<path d="M183.781 29.8924C180.122 31.8325 176.679 34.4193 174.097 37.4373C168.717 43.2576 165.704 49.7247 168.071 51.4493C168.932 52.096 170.869 52.3115 174.527 48.8624C177.97 45.8445 180.553 42.1798 182.274 38.084C184.642 32.4792 183.781 29.8924 183.781 29.8924ZM212.618 40.2397C206.807 37.2217 202.503 33.557 197.984 31.1858C193.465 28.8145 191.098 28.1678 187.654 28.599C187.224 28.599 186.794 28.8145 186.148 29.0301C186.148 29.0301 187.87 35.066 180.983 45.1978C173.882 55.3295 167.426 55.5451 165.704 52.7427C163.982 49.9403 166.35 43.6888 170.438 38.2996C173.882 34.2037 177.97 30.7546 182.49 27.9523C182.49 27.9523 180.122 26.4433 174.097 29.8924C163.982 36.1439 155.374 44.5511 148.918 54.2517C139.665 67.6169 137.728 74.9463 136.437 80.5511C135.146 86.3714 136.222 92.4073 142.678 92.4073C149.134 92.4073 156.45 82.7067 158.602 79.2576C162.476 73.0061 165.058 63.3055 159.678 64.599C157.096 65.2457 154.944 68.0481 153.653 70.8505C152.792 72.575 152.146 74.5151 151.716 76.4552C149.779 77.3175 148.058 78.1798 146.551 79.4732C144.83 80.7666 143.108 82.2756 141.602 83.7846C142.032 79.4732 143.323 75.3774 145.26 71.7127C147.842 65.8924 153.222 61.7966 159.463 60.5032C162.906 60.2876 167.426 63.09 163.552 73.8684C159.678 84.6469 148.703 97.7966 136.867 97.7966C126.107 98.0121 119.006 84.2157 134.07 60.072C150.64 33.557 170.008 25.3654 176.464 24.5032C182.92 23.6409 184.857 26.4433 184.857 26.4433C188.73 24.9343 192.819 24.2876 196.908 24.5032C204.655 24.9343 210.681 30.5391 218.643 34.4193C216.491 36.1439 214.554 38.2996 212.618 40.2397ZM247.48 31.1858C242.1 34.6349 234.783 37.8684 227.682 37.0061C225.96 38.9463 224.023 41.102 222.086 43.4732C234.568 45.8445 245.328 38.2996 251.138 31.6169C253.29 29.2457 255.012 26.6588 256.518 23.8564C253.506 26.8744 250.708 29.2457 247.48 31.1858ZM231.125 66.1079C231.125 65.8924 231.34 65.6768 231.34 65.6768C231.34 65.0301 230.91 64.599 230.264 64.599C228.973 64.599 227.466 64.8145 223.378 69.3415C219.934 73.2217 216.922 77.5331 214.339 82.06C211.972 86.3714 210.896 89.8205 212.402 90.6828C212.833 90.8984 213.478 90.8984 213.909 90.8984C214.77 90.6828 215.846 89.8205 217.567 87.8804C218.213 87.0181 219.289 85.7247 220.15 84.4313C222.732 80.7666 229.618 68.6948 231.125 66.1079ZM187.224 71.2816C187.87 69.3415 188.73 65.8924 187.009 64.3834C185.072 62.8744 179.907 66.3235 179.907 69.9882C180.122 72.575 181.844 74.9463 184.426 75.593C184.857 75.8085 185.072 75.8085 185.287 75.3774C185.933 74.084 186.578 72.7906 187.224 71.2816ZM183.35 78.1798C182.059 77.5331 180.983 76.8864 179.907 76.0241C178.831 75.1618 177.97 74.084 177.325 72.7906C177.325 72.575 177.11 72.7906 177.11 72.7906C176.034 74.084 174.958 75.593 174.097 77.102C171.299 81.1978 167.21 89.3894 171.084 90.6828C173.451 91.5451 177.54 87.4493 179.692 84.4313C181.198 82.4912 182.49 80.3355 183.781 78.1798C183.566 78.1798 183.566 78.1798 183.35 78.1798ZM226.175 87.6648C225.099 89.3894 224.023 92.4073 227.466 90.4672C231.555 88.096 237.581 79.0421 237.581 79.0421H240.163C237.796 82.7067 234.998 86.3714 232.201 89.6049C228.112 94.1319 222.947 98.4433 219.289 98.0121C214.985 97.581 216.491 91.9762 216.491 91.9762C216.491 91.9762 210.466 98.4433 206.377 98.0121C200.782 97.3654 202.503 90.4672 202.503 90.4672C202.503 90.4672 196.047 98.2277 191.743 98.0121C184.857 97.581 186.578 89.3894 188.515 83.569C189.591 80.3355 190.452 77.9642 190.452 77.9642C190.452 77.9642 189.806 78.1798 188.3 78.3954C187.654 78.3954 186.148 78.6109 186.148 78.6109C186.148 78.6109 183.35 83.569 180.983 86.587C178.616 89.6049 169.147 99.9522 163.552 97.7966C158.387 95.8564 160.109 87.8804 163.122 81.4133C167.641 72.1439 179.907 58.7786 187.224 60.5032C194.326 62.2277 187.439 76.0241 187.439 76.0241C187.87 76.0241 188.3 76.0241 188.946 76.0241C189.806 75.8085 190.882 75.593 191.743 75.1618C196.262 65.8924 201.427 57.2696 207.453 49.078C215.63 38.7307 232.201 21.054 238.657 25.3654C240.163 26.4433 239.518 30.1079 237.366 34.4193C236.505 34.6349 235.429 35.066 234.353 35.2816C235.429 33.3415 236.505 31.1858 236.935 29.0301C237.796 23.6409 225.53 34.8505 216.706 46.9223C211.326 54.2517 206.592 61.7966 202.503 69.9882C204.01 69.1259 205.731 67.8325 207.022 66.7546C210.896 63.5211 214.77 59.8564 218.213 56.1918C221.656 52.7427 224.884 49.078 227.897 45.1978C228.758 45.1978 229.834 44.9822 230.694 44.9822C227.466 49.2936 224.023 53.6049 220.15 57.4852C216.706 61.1499 212.833 64.8145 209.39 67.8325C206.377 70.4193 203.364 72.7906 200.136 74.7307C200.136 74.7307 192.389 90.2516 196.478 91.3295C199.06 91.9762 203.794 84.4313 203.794 84.4313C203.794 84.4313 210.25 74.7307 214.124 70.2037C219.289 64.1678 223.808 60.7187 228.327 60.7187C230.049 60.9343 231.555 62.0121 232.416 63.5211L233.707 61.581H241.454C241.67 61.581 227.466 85.7247 226.175 87.6648ZM247.48 31.1858C242.1 34.6349 234.783 37.8684 227.682 37.0061C225.96 38.9463 224.023 41.102 222.086 43.4732C234.568 45.8445 245.328 38.2996 251.138 31.6169C253.29 29.2457 255.012 26.6588 256.518 23.8564C253.506 26.8744 250.708 29.2457 247.48 31.1858ZM234.353 93.7008H235.429C235.644 93.7008 236.074 93.7008 236.29 93.7008C236.72 93.9163 236.935 94.1319 236.72 94.563C236.72 94.7786 236.505 94.9942 236.29 95.2097C236.074 95.2097 236.074 95.4253 235.859 95.4253C236.074 95.4253 236.29 95.6409 236.505 95.8564C236.72 96.072 236.72 96.2876 236.72 96.2876V96.7187V96.9343H236.29V96.5032C236.29 96.072 236.29 95.8564 236.074 95.6409C235.859 95.6409 235.644 95.4253 235.429 95.4253H234.998V96.7187H234.353V93.7008ZM236.29 94.563C236.29 94.3475 236.29 94.1319 236.074 94.1319C235.859 94.1319 235.644 93.9163 235.429 93.9163H234.998V95.2097H235.429C235.644 95.2097 235.859 95.2097 236.074 95.2097C236.29 95.2097 236.29 94.9942 236.29 94.563ZM238.442 95.4253C238.442 96.7187 237.581 98.0121 236.29 98.4433C234.998 98.8744 233.492 98.2277 232.846 96.9343C232.201 95.6409 232.416 94.1319 233.277 93.2696C234.568 92.1918 236.29 92.1918 237.581 93.2696C238.226 93.7008 238.442 94.563 238.442 95.4253ZM235.429 92.6229C234.783 92.6229 234.138 92.8385 233.492 93.4852C233.062 93.9163 232.631 94.563 232.631 95.4253C232.631 96.072 232.846 96.7187 233.492 97.3654C233.922 97.7966 234.568 98.2277 235.429 98.0121C236.074 98.0121 236.935 97.7966 237.366 97.3654C237.796 96.9343 238.226 96.072 238.226 95.4253C238.226 94.7786 238.011 94.1319 237.366 93.4852C236.935 93.054 236.29 92.8385 235.429 92.6229ZM140.526 43.2576H133.209L129.12 49.7247H136.437L140.526 43.2576ZM106.094 66.1079C109.106 61.7966 117.714 47.1379 117.714 47.1379C117.714 46.4912 117.069 46.06 116.638 46.06C115.562 46.06 113.41 46.4912 109.537 51.2337C106.094 55.3295 103.081 59.4253 100.498 64.1678C98.1313 68.4792 97.0553 71.7127 98.3465 72.575C98.7769 72.7906 99.4225 72.7906 99.8529 72.7906C101.359 72.1439 102.866 71.066 103.726 69.7726C104.372 68.6948 105.233 67.4014 106.094 66.1079ZM67.1425 46.06C65.2057 44.5511 60.0409 48.0002 60.0409 51.6648C60.0409 55.3295 64.5601 56.6229 65.2057 56.6229C65.4208 56.6229 65.8513 56.6229 65.8513 56.4073C66.0665 56.1918 66.4968 54.8984 67.3577 53.1738C68.2184 51.2337 69.0793 47.569 67.1425 46.06ZM64.3449 58.9942C62.8385 58.563 61.5473 57.9163 60.2561 57.2696C59.18 56.4073 58.1041 55.3295 57.4585 54.2517C57.4585 54.0361 57.2433 54.2517 57.2433 54.2517C57.2433 54.2517 56.8129 54.8984 54.0153 58.9942C51.2177 62.8744 47.3441 71.2816 51.0025 72.575C53.3697 73.4373 57.4585 69.1259 59.6105 66.3235C61.3321 64.1678 62.8385 61.7966 64.1297 59.4253C64.3448 58.9942 64.3449 58.9942 64.3449 58.9942ZM123.31 61.3654H125.892C125.892 61.3654 112.55 80.5511 105.018 79.6888C100.929 79.2576 102.005 74.084 102.005 74.084C102.005 74.084 96.1945 80.9822 90.8145 79.6888C86.0801 78.3954 89.3081 70.2037 89.3081 70.2037C88.6625 70.4193 78.1176 82.4912 70.5857 79.4732C63.0536 76.4552 66.7121 66.3235 68.4337 63.3055C69.7248 60.7187 71.0161 58.3475 71.0161 58.3475C71.0161 58.3475 69.7248 58.7786 69.0792 58.7786L67.1425 59.2097C67.1425 59.2097 63.4841 65.2457 61.1169 68.2636C58.7496 71.2816 49.2809 81.6289 43.6857 79.4732C38.0905 77.3175 39.3817 69.557 42.6097 63.3055C47.7745 52.9582 60.0409 40.4552 67.3577 42.3954C74.6744 44.3355 68.6488 56.4073 68.6488 56.4073C68.6488 56.4073 70.1553 56.6229 73.5985 54.2517C78.7633 50.8026 85.4344 41.3175 92.7513 42.3954C96.1945 42.8265 99.4225 46.4912 94.9033 53.1738C93.3969 55.3295 91.2449 57.2696 89.3081 55.3295C88.2321 54.2517 89.0929 52.096 90.3841 50.587C91.2449 49.2936 92.7513 48.6469 94.2577 48.8624C94.2577 48.8624 95.5489 46.06 92.3209 46.06C89.7385 46.06 83.4977 51.8804 80.0545 57.7008C76.8265 63.09 71.8769 72.1439 76.8265 74.2996C81.3456 76.0241 89.9537 65.8924 94.0425 60.5032C98.1313 55.1139 107.17 42.8265 114.702 42.3954C116.423 42.3954 117.93 43.2576 118.79 44.5511L119.651 43.0421H127.398C127.398 43.0421 112.98 67.1858 111.904 68.9103C111.043 70.4193 109.752 73.6529 113.195 71.7127C116.638 69.7726 123.525 61.3654 123.31 61.3654ZM119.436 99.9522C113.841 96.072 106.954 94.1319 100.283 94.3475C96.6249 94.3475 92.9665 96.2876 90.8145 99.5211C88.0169 94.3475 82.2065 91.3295 73.1681 91.3295C58.7497 91.5451 44.5465 98.2277 33.1409 98.2277C22.3809 98.2277 14.4185 91.3295 14.6337 79.2576C15.0641 57.9163 33.1409 38.7307 46.4833 30.1079C54.2305 25.1499 60.6865 23.6409 64.7753 24.072C66.7121 24.2876 68.4337 25.581 69.5097 27.5211C70.3704 29.2457 70.3705 31.4014 69.2945 33.3415C65.8513 41.102 61.1169 40.4552 61.3321 36.7906C61.5473 34.8505 62.6232 33.1259 64.1297 32.0481C64.9904 31.6169 65.8513 31.4014 66.9273 31.4014C67.5729 30.7546 68.2185 26.6588 62.6233 27.9523C57.0281 29.2457 50.3569 34.8505 44.1161 41.7487C37.8753 48.6469 27.9761 62.0121 25.3937 76.0241C24.3177 82.4912 24.9633 94.3475 40.2425 94.1319C53.1545 94.1319 72.3073 85.5091 89.9537 85.7247C95.9793 85.7247 102.005 87.2337 107.385 90.4672C111.904 92.8385 115.993 96.072 119.436 99.9522Z" fill="white"/>
</svg>
