<svg width="269" height="126" viewBox="0 0 269 126" fill="none" xmlns="http://www.w3.org/2000/svg">
<g clip-path="url(#clip0_3022_11739)">
<path d="M12.105 41.6313H0V83.5938H12.0342C18.4336 83.5938 23.049 82.1032 27.1124 78.7564C29.4983 76.7894 31.4217 74.3274 32.7474 71.5433C34.0731 68.7592 34.7689 65.7205 34.7859 62.6407C34.7859 50.2657 25.4701 41.6313 12.105 41.6313ZM21.7324 73.1454C19.1415 75.4657 15.7719 76.4782 10.4061 76.4782H8.21158V48.747H10.4202C15.7436 48.747 18.9149 49.6892 21.7465 52.136C23.1944 53.4683 24.3475 55.0852 25.1323 56.884C25.9171 58.6828 26.3166 60.6241 26.3054 62.5845C26.3134 64.5623 25.9115 66.5205 25.1248 68.3374C24.338 70.1543 23.1833 71.7909 21.7324 73.1454Z" fill="white"/>
<path d="M46.8063 41.6313H38.5664V83.5938H46.8063V41.6313Z" fill="white"/>
<path d="M66.9665 57.6764C62.0113 55.9186 60.5955 54.7233 60.5955 52.4451C60.5955 49.8155 63.1864 47.8045 66.74 47.8045C68.0263 47.8362 69.2886 48.1578 70.4315 48.7449C71.5744 49.332 72.5681 50.1693 73.3376 51.1936L77.5849 45.5686C74.1679 42.5455 69.7444 40.8872 65.1685 40.9139C57.7639 40.942 52.1007 46.0889 52.1007 52.9655C52.1007 58.7451 54.7624 61.6983 62.4926 64.4686C64.4491 65.0941 66.3445 65.8943 68.1558 66.8592C68.9119 67.3076 69.537 67.9444 69.9691 68.7066C70.4012 69.4687 70.6253 70.3298 70.6193 71.2045C70.6132 72.0176 70.4402 72.821 70.1107 73.5653C69.7813 74.3097 69.3024 74.9795 68.7034 75.5337C68.1043 76.0879 67.3977 76.5149 66.6268 76.7885C65.8559 77.0621 65.0369 77.1765 64.2199 77.1248C62.3343 77.1507 60.4816 76.6331 58.886 75.6348C57.2905 74.6365 56.0204 73.2002 55.2296 71.4998L49.9062 76.5905C53.7006 82.1311 58.2594 84.578 64.5314 84.578C73.0969 84.578 79.0998 78.953 79.0998 70.7967C79.114 64.1592 76.339 61.1358 66.9665 57.6764Z" fill="white"/>
<path d="M81.7194 62.6406C81.6962 65.5445 82.2589 68.4235 83.3744 71.1077C84.4898 73.792 86.1353 76.2271 88.2138 78.2693C90.2923 80.3116 92.7617 81.9195 95.4761 82.9982C98.1905 84.0769 101.095 84.6046 104.018 84.55C107.623 84.5563 111.178 83.7179 114.396 82.1031V72.4703C111.097 75.7328 108.181 77.0547 104.485 77.0547C96.1888 77.0547 90.3274 71.0781 90.3274 62.5844C90.2652 60.7337 90.5745 58.8893 91.2373 57.1585C91.9001 55.4278 92.9032 53.8455 94.1881 52.5039C95.4729 51.1622 97.0139 50.088 98.721 49.344C100.428 48.6 102.267 48.201 104.131 48.1703C108.067 48.1703 111.04 49.5766 114.467 52.8953V43.2625C111.361 41.5676 107.873 40.6823 104.33 40.6891C101.389 40.6369 98.4668 41.1653 95.7332 42.2437C92.9996 43.3221 90.5089 44.929 88.4055 46.9711C86.3021 49.0133 84.628 51.4499 83.4802 54.1398C82.3325 56.8297 81.734 59.7192 81.7194 62.6406Z" fill="white"/>
<path d="M179.692 69.8267L168.422 41.6313H159.432L177.356 84.6907H181.787L200.036 41.6313H191.117L179.692 69.8267Z" fill="white"/>
<path d="M203.774 83.6079H227.149V76.4923H212.014V65.172H226.583V58.0704H212.014V48.747H227.149V41.6313H203.774V83.6079Z" fill="white"/>
<path d="M259.783 54.0204C259.783 46.1595 254.332 41.6313 244.818 41.6313H232.6V83.5938H240.839V66.7188H241.916L253.313 83.5938H263.45L250.155 65.9173C256.357 64.7079 259.783 60.4892 259.783 54.0204ZM243.232 60.9532H240.825V48.297H243.36C248.499 48.297 251.288 50.4345 251.288 54.5126C251.288 58.5907 248.513 60.9532 243.232 60.9532Z" fill="white"/>
<path d="M266.352 43.8392C266.352 43.0938 265.828 42.686 264.936 42.686H263.747V46.4267H264.625V45.0204L265.673 46.4267H266.763L265.531 44.9079C265.774 44.8576 265.991 44.7219 266.142 44.5256C266.293 44.3293 266.368 44.0856 266.352 43.8392ZM264.781 44.3313H264.625V43.3751H264.795C265.234 43.3751 265.46 43.5298 265.46 43.8392C265.46 44.1485 265.219 44.3313 264.781 44.3313Z" fill="white"/>
<path d="M265.121 41.3076C264.474 41.2964 263.838 41.477 263.295 41.8261C262.752 42.1753 262.325 42.6773 262.071 43.268C261.816 43.8588 261.744 44.5115 261.864 45.143C261.985 45.7745 262.292 46.356 262.746 46.8134C263.201 47.2708 263.782 47.5834 264.416 47.7112C265.05 47.8391 265.708 47.7764 266.306 47.5312C266.905 47.2859 267.416 46.8693 267.774 46.3344C268.133 45.7995 268.323 45.1706 268.32 44.5279C268.32 43.6811 267.985 42.8683 267.386 42.2656C266.787 41.6629 265.973 41.3187 265.121 41.3076ZM265.121 47.1857C264.586 47.2082 264.058 47.0713 263.603 46.7926C263.148 46.5139 262.787 46.1063 262.568 45.6222C262.348 45.1381 262.279 44.5998 262.371 44.0766C262.462 43.5535 262.709 43.0694 263.08 42.6869C263.45 42.3044 263.928 42.041 264.451 41.9306C264.974 41.8202 265.518 41.8679 266.013 42.0675C266.509 42.2671 266.932 42.6095 267.23 43.0505C267.528 43.4916 267.685 44.011 267.683 44.542C267.689 44.8836 267.627 45.2231 267.5 45.5408C267.374 45.8586 267.185 46.1485 266.946 46.394C266.707 46.6395 266.421 46.8358 266.106 46.9717C265.79 47.1075 265.45 47.1802 265.106 47.1857H265.121Z" fill="white"/>
<path d="M161.768 62.5703C161.768 66.9648 160.456 71.2605 157.998 74.9144C155.54 78.5682 152.047 81.4161 147.959 83.0978C143.872 84.7794 139.374 85.2194 135.035 84.3621C130.695 83.5048 126.71 81.3887 123.581 78.2813C120.453 75.174 118.322 71.215 117.459 66.905C116.596 62.595 117.039 58.1275 118.732 54.0676C120.425 50.0076 123.292 46.5375 126.971 44.0961C130.65 41.6547 134.975 40.3516 139.399 40.3516C145.332 40.3516 151.021 42.6925 155.216 46.8593C159.411 51.0261 161.768 56.6775 161.768 62.5703Z" fill="white"/>
<path style="mix-blend-mode:multiply" opacity="0.65" d="M161.768 62.5703C161.768 66.9648 160.456 71.2605 157.998 74.9144C155.54 78.5682 152.047 81.4161 147.959 83.0978C143.872 84.7794 139.374 85.2194 135.035 84.3621C130.695 83.5048 126.71 81.3887 123.581 78.2813C120.453 75.174 118.322 71.215 117.459 66.905C116.596 62.595 117.039 58.1275 118.732 54.0676C120.425 50.0076 123.292 46.5375 126.971 44.0961C130.65 41.6547 134.975 40.3516 139.399 40.3516C145.332 40.3516 151.021 42.6925 155.216 46.8593C159.411 51.0261 161.768 56.6775 161.768 62.5703Z" fill="white"/>
</g>
<defs>
<clipPath id="clip0_3022_11739">
<rect width="269" height="45" fill="white" transform="translate(0 40)"/>
</clipPath>
</defs>
</svg>
