<svg width="269" height="126" viewBox="0 0 269 126" fill="none" xmlns="http://www.w3.org/2000/svg">
<g clip-path="url(#clip0_3022_11899)">
<path d="M233.595 84.0123C233.595 79.9009 237.189 77.0977 241.297 77.0977C245.406 77.0977 249 79.9009 249 84.0123C249 88.1237 245.406 90.9269 241.297 90.9269C237.292 90.9269 233.595 88.1237 233.595 84.0123ZM241.4 83.2648C242.735 83.2648 243.043 82.6107 243.043 82.05C243.043 81.3959 242.633 80.8353 241.4 80.8353H239.757V83.2648H241.4ZM239.654 84.2926V88.1237H238.319V79.8074H241.708C243.66 79.8074 244.584 80.555 244.584 82.1435C244.584 83.0779 243.865 83.8254 242.941 83.9188C243.762 84.0123 243.968 84.6664 244.173 85.7877C244.276 86.5352 244.481 87.8434 244.789 88.1237H243.146C242.735 87.3762 242.838 86.2549 242.53 85.3205C242.324 84.5729 241.914 84.3861 240.989 84.3861L239.654 84.2926ZM247.562 84.0123C247.562 80.6484 244.995 78.2189 241.4 78.2189C237.806 78.2189 235.238 80.6484 235.238 84.0123C235.238 87.3762 237.806 89.8056 241.4 89.8056C244.892 89.8056 247.562 87.3762 247.562 84.0123Z" fill="white"/>
<path opacity="0.7" d="M209.226 90.9268L200.853 81.4934L192.578 90.9268H175.054L192.189 71.6709L175.054 52.5122H193.162L201.632 61.8484L209.713 52.5122H227.14L210.102 71.6709L227.432 90.9268H209.226Z" fill="white"/>
<path opacity="0.7" d="M141.162 92.4634V31H175.054V44.7354H155.505V53.4312H175.054V66.5737H155.505V78.728H175.054V92.4634H141.162Z" fill="white"/>
<path d="M118.054 82.6345C112.744 82.6345 109.499 77.7356 109.499 72.6407C109.499 67.154 112.351 61.9611 118.054 61.9611C123.954 61.9611 126.314 67.2519 126.314 72.6407C126.314 77.8336 123.856 82.6345 118.054 82.6345ZM67.2162 66.4681C68.1012 62.647 71.1495 60.0995 74.8861 60.0995C79.0161 60.0995 81.8677 62.549 82.6544 66.4681H67.2162ZM126.707 31V55.8865H126.511C123.364 52.2613 119.332 50.9876 114.809 50.9876C105.369 50.9876 98.2892 57.3561 95.8309 65.7823C92.9793 56.4743 85.7027 50.7916 74.7878 50.7916C65.9379 50.7916 59.0546 54.7107 55.4163 61.1773V53.2411H37.2248V44.619H57.088V31H21V91.9425H37.2248V66.2722H53.4497C52.958 68.1337 52.663 70.1913 52.663 72.2488C52.663 84.986 62.3979 93.902 74.8861 93.902C85.3094 93.902 92.1926 89.0031 95.9293 80.0871H81.9661C80.0978 82.7325 78.6228 83.5163 74.8861 83.5163C70.5595 83.5163 66.7246 79.6952 66.7246 75.1882H95.0443C96.2243 85.2799 104.189 94 115.006 94C119.627 94 123.954 91.7465 126.609 87.8274H126.806V91.7465H141.162V31H126.707Z" fill="white"/>
</g>
<defs>
<clipPath id="clip0_3022_11899">
<rect width="228" height="63" fill="white" transform="translate(21 31)"/>
</clipPath>
</defs>
</svg>
