<svg width="269" height="126" viewBox="0 0 269 126" fill="none" xmlns="http://www.w3.org/2000/svg">
<g clip-path="url(#clip0_3022_7965)">
<path d="M53.9576 71.2978C53.9576 73.0364 53.8795 74.0638 53.6453 74.4589C53.411 74.854 52.9425 75.0911 52.1617 75.0911C51.3809 75.0911 50.8343 74.854 50.6 74.3008C50.3658 73.8267 50.2096 72.6413 50.2096 70.9027C50.2096 69.4012 50.3658 68.2157 50.6781 67.3464C50.9905 66.5562 52.0836 65.5288 54.0357 64.2644V71.2978M50.2096 56.0455C50.2096 54.1489 50.2877 52.9635 50.522 52.4893C50.7562 52.0151 51.2247 51.7781 52.0055 51.7781C52.7083 51.7781 53.2549 52.0151 53.5672 52.5683C53.8795 53.1215 54.0357 54.3069 54.0357 56.0455C54.0357 57.468 53.8795 58.4163 53.6453 58.8905C53.3329 59.3647 51.2247 60.234 47.2425 61.5774C43.4945 62.8419 41.152 63.8692 40.2151 64.8176C39.2781 65.7659 38.8096 67.5045 38.8096 70.0334V72.8784C38.8096 76.3556 39.6685 78.5683 41.4644 79.5957C43.2603 80.623 45.2123 81.0972 47.3206 81.0972C48.9603 81.0972 50.3658 80.7811 51.537 80.1489C52.7083 79.5167 53.6453 78.6474 54.4261 77.3829V80.465H66.2946V63.3951C66.2946 57.7841 66.0604 54.0698 65.67 52.2522C65.2796 50.4346 64.0303 48.9331 61.922 47.6686C59.8138 46.4042 56.6905 45.772 52.6302 45.772C49.1946 45.772 46.3836 46.3252 44.2754 47.4315C42.089 48.5379 40.6836 49.8024 39.9808 51.2249C39.2781 52.6474 38.8877 53.7537 38.8877 56.4407V57.9422H50.3658V56.0455H50.2096Z" fill="white"/>
<path d="M82.6918 46.4042V49.6443C83.6288 48.3799 84.8 47.3525 86.0493 46.7203C87.3768 46.0881 88.8603 45.772 90.5001 45.772C93.7795 45.772 96.3563 47.0364 98.2302 49.6443C99.2453 48.3799 100.417 47.3525 101.666 46.7203C102.915 46.0881 104.399 45.772 105.96 45.772C107.991 45.772 109.708 46.1671 111.114 47.0364C112.441 47.9057 113.378 48.9331 113.691 50.1975C114.081 51.4619 114.237 53.4376 114.237 56.2826V80.465H102.369V58.2583C102.369 55.3343 102.291 53.5957 102.056 52.8844C101.822 52.1732 101.275 51.8571 100.495 51.8571C99.6357 51.8571 99.0891 52.1732 98.8549 52.8844C98.6206 53.5957 98.4645 55.4133 98.4645 58.2583V80.465H86.5959V58.8115C86.5959 55.4923 86.5178 53.5167 86.2836 52.8054C86.1274 52.0942 85.5808 51.7781 84.7219 51.7781C84.1754 51.7781 83.7069 51.9361 83.3165 52.3312C82.926 52.6474 82.6918 53.1215 82.6918 53.5957C82.6137 54.0698 82.6137 55.1762 82.6137 56.8358V80.465H70.8232V46.4042H82.6918Z" fill="white"/>
<path d="M130.401 58.8114V55.9664C130.401 54.0698 130.479 52.8844 130.713 52.4102C130.947 52.0151 131.416 51.778 132.353 51.778C133.055 51.778 133.524 52.0151 133.758 52.5683C133.992 53.0424 134.07 54.2278 134.07 55.9664V58.7324H130.401M146.251 59.5227C146.251 56.2035 145.783 53.6746 144.924 51.778C143.987 49.9603 142.503 48.4588 140.239 47.3524C137.975 46.2461 135.164 45.6929 131.728 45.6929C128.917 45.6929 126.418 46.167 124.31 47.0363C122.124 47.9847 120.64 49.2491 119.625 50.9877C118.688 52.7263 118.22 55.0971 118.22 58.0211V67.9786C118.22 70.5075 118.454 72.4831 118.844 73.8266C119.235 75.1701 120.016 76.3555 121.109 77.4619C122.202 78.5682 123.764 79.4375 125.716 80.0698C127.668 80.702 129.932 81.0181 132.509 81.0181C135.164 81.0181 137.35 80.702 139.146 80.0698C140.942 79.4375 142.347 78.4892 143.518 77.2248C144.69 75.9603 145.392 74.7749 145.705 73.5895C146.017 72.4831 146.173 70.8236 146.173 68.7689V66.7141H134.617V70.6655C134.617 72.3251 134.461 73.5105 134.149 74.0637C133.836 74.6169 133.212 74.933 132.275 74.933C131.494 74.933 131.025 74.6959 130.713 74.3008C130.479 73.8266 130.323 72.8783 130.323 71.2977V63.9482H146.173V59.5227H146.251Z" fill="white"/>
<path d="M194.897 40.8726V45.4561H198.801V49.7236H194.897V70.7449C194.897 72.9577 195.053 74.2221 195.287 74.5382C195.521 74.7753 196.693 74.9333 198.723 74.9333V80.4653H193.804C190.993 80.4653 189.743 80.3862 188.572 80.1491C187.401 79.9911 186.308 79.5169 185.449 78.8057C184.512 78.0944 183.965 77.2251 183.731 76.3558C183.497 75.4075 183.419 73.2738 183.419 69.8756V49.8026H181.076V45.5352H183.419V40.8726H194.897Z" fill="white"/>
<path d="M216.682 71.5349C216.682 73.0364 216.526 73.9847 216.291 74.3799C216.057 74.854 215.589 75.0121 214.808 75.0121C214.105 75.0121 213.637 74.775 213.324 74.3008C213.09 73.8267 212.934 72.7993 212.934 71.1398V55.8084C212.934 54.0698 213.09 52.9635 213.324 52.4893C213.559 52.0151 214.105 51.7781 214.808 51.7781C215.511 51.7781 216.057 52.0151 216.291 52.4893C216.526 52.9635 216.604 54.0698 216.604 55.8084V71.5349M228.238 52.9635C227.848 51.7781 227.145 50.5926 226.052 49.4863C224.959 48.3799 223.475 47.4315 221.523 46.7993C219.571 46.0881 217.228 45.772 214.417 45.772C211.138 45.772 208.483 46.3252 206.375 47.3525C204.267 48.4589 202.861 49.8814 202.002 51.62C201.221 53.4376 200.831 55.8875 200.831 59.0486V67.8206C200.831 70.7446 201.065 72.8784 201.534 74.3799C202.002 75.8024 202.705 77.0668 203.72 78.0942C204.735 79.1215 206.219 79.8328 208.093 80.386C209.967 80.8601 212.231 81.1762 214.964 81.1762C217.385 81.1762 219.571 80.8601 221.367 80.3069C223.241 79.6747 224.724 78.8054 225.974 77.541C227.145 76.2765 227.926 74.9331 228.316 73.5106C228.707 72.0881 228.863 69.7963 228.863 66.7142V58.3373C228.863 55.9665 228.628 54.1489 228.238 52.9635Z" fill="white"/>
<path d="M177.016 60.7872C175.532 58.8906 172.018 56.4407 166.318 53.4377C164.366 52.4103 163.117 51.541 162.727 50.8298C162.258 50.1185 162.024 49.0122 162.024 47.5897C162.024 46.4833 162.18 45.614 162.57 45.1398C162.961 44.5866 163.507 44.3495 164.288 44.3495C164.991 44.3495 165.459 44.5866 165.772 44.9818C166.084 45.3769 166.24 46.3252 166.24 47.8267V50.9878H178.031V49.2492C178.031 45.8511 177.64 43.4012 176.859 41.9787C176.079 40.5562 174.595 39.3708 172.253 38.4225C169.91 37.4742 167.099 37 163.82 37C160.774 37 158.198 37.3951 156.09 38.2644C153.981 39.1337 152.42 40.3191 151.483 41.8207C150.546 43.3222 150.077 45.772 150.077 49.0912C150.077 51.383 150.389 53.2796 151.092 54.7021C151.795 56.2036 152.576 57.31 153.669 58.1793C154.684 59.0486 156.792 60.3131 159.916 62.2097C163.039 64.0274 165.069 65.3708 165.85 66.1611C166.631 66.9514 167.021 68.6109 167.021 71.1398C167.021 72.2462 166.787 73.1155 166.396 73.7477C166.006 74.3009 165.381 74.617 164.522 74.617C163.664 74.617 163.117 74.3799 162.727 73.9058C162.414 73.4316 162.258 72.4043 162.258 70.7447V67.7416H150.468V69.2432C150.468 72.4833 150.858 74.0638 151.561 75.8024C152.342 77.541 153.903 78.9635 156.324 80.1489C158.744 81.2553 161.633 81.8085 165.069 81.8085C168.192 81.8085 170.847 81.3343 173.19 80.307C175.532 79.3587 177.094 78.0942 177.953 76.6717C178.733 75.2492 179.202 72.9574 179.202 69.8754C179.202 65.6869 178.499 62.6839 177.016 60.7872Z" fill="white"/>
<path d="M247.837 70.9027C247.837 72.7204 247.759 73.9058 247.524 74.3799C247.368 74.8541 246.822 75.0912 246.119 75.0912C245.338 75.0912 244.791 74.8541 244.557 74.3009C244.323 73.7477 244.167 72.4833 244.167 70.4286V56.2827C244.167 54.307 244.245 53.0426 244.479 52.5684C244.713 52.0152 245.26 51.7781 246.041 51.7781C246.822 51.7781 247.368 52.0152 247.524 52.4103C247.681 52.8845 247.759 54.1489 247.759 56.2037V70.9027M233.079 46.0091V89H244.245V77.462C245.338 78.6474 246.509 79.5167 247.759 80.1489C249.086 80.7812 250.492 81.0182 251.975 81.0182C253.849 81.0182 255.489 80.6231 256.816 79.8328C258.144 79.0426 259.081 78.0152 259.471 76.6717C259.94 75.3283 260.096 73.1945 260.096 70.0334V55.8085C260.096 53.1216 259.94 51.2249 259.549 50.1186C259.237 49.0122 258.378 47.9848 256.972 47.1155C255.567 46.2462 253.927 45.8511 252.053 45.8511C250.492 45.8511 249.086 46.1672 247.759 46.7204C246.431 47.3526 245.26 48.2219 244.167 49.4073V46.0091H233.079Z" fill="white"/>
<path d="M34.5933 53.7538H21.8658V49.8815C21.8658 47.4316 21.7097 45.8511 21.4754 45.2979C21.2412 44.6657 20.6946 44.3495 19.7576 44.3495C18.9768 44.3495 18.4302 44.5866 18.1179 45.1398C17.8055 45.693 17.7275 47.0365 17.7275 49.2492V69.8754C17.7275 71.772 17.8836 73.1155 18.1179 73.6687C18.4302 74.3009 18.9768 74.617 19.8357 74.617C20.7727 74.617 21.3973 74.3009 21.7097 73.5897C22.022 72.8784 22.1782 71.535 22.1782 69.5593V64.5015H19.6795V59.0486H34.5933V81.0973H26.3165L25.3796 78.0152C24.5207 79.3587 23.4275 80.307 22.1001 80.9392C20.7727 81.5714 19.211 81.8875 17.4151 81.8875C15.3069 81.8875 13.2768 81.4134 11.4028 80.5441C9.52879 79.6748 8.1233 78.4894 7.18631 77.1459C6.24932 75.8024 5.62466 74.3799 5.39041 72.8784C5.15617 71.3769 5 69.1641 5 66.1611V53.4377C5 49.3283 5.23425 46.3252 5.78083 44.5076C6.24932 42.6109 7.73289 40.9514 10.1535 39.3708C12.4959 37.7903 15.6192 37 19.3672 37C23.1152 37 26.1604 37.6322 28.659 39.0547C31.1577 40.3982 32.7193 41.9787 33.5002 43.8754C34.281 45.693 34.5933 48.3799 34.5933 51.9362" fill="white"/>
<path d="M262.517 45.8511C263.298 45.8511 264 46.4833 264 47.3526C264 48.2219 263.298 48.8541 262.517 48.8541C261.736 48.8541 261.033 48.2219 261.033 47.3526C260.955 46.4833 261.658 45.8511 262.517 45.8511ZM262.517 48.617C263.22 48.617 263.766 48.0638 263.766 47.3526C263.766 46.6413 263.22 46.0882 262.517 46.0882C261.814 46.0882 261.268 46.6413 261.268 47.3526C261.268 48.0638 261.814 48.617 262.517 48.617ZM261.892 46.4833H262.595C262.985 46.4833 263.22 46.6413 263.22 46.9575C263.22 47.2736 262.985 47.4316 262.751 47.4316L263.22 48.2219H262.907L262.439 47.4316H262.126V48.2219H261.892V46.4833ZM262.907 46.9575C262.907 46.7994 262.751 46.7204 262.595 46.7204H262.517H262.126V47.2736H262.439C262.673 47.2736 262.907 47.2736 262.907 46.9575Z" fill="white"/>
</g>
<defs>
<clipPath id="clip0_3022_7965">
<rect width="259" height="52" fill="white" transform="translate(5 37)"/>
</clipPath>
</defs>
</svg>
