<svg width="256" height="47" viewBox="0 0 256 47" fill="none" xmlns="http://www.w3.org/2000/svg">
<g clip-path="url(#clip0_3022_5646)">
<path d="M67.8441 30.1489H77.3262L76.2622 36.7943H58.8755L63.6892 6.69238H71.5954L67.8458 30.1489H67.8441Z" fill="white"/>
<path d="M86.7355 23.6203C87.5209 21.4854 89.4751 20.3595 91.6117 20.3595C93.5895 20.3595 95.1991 21.6494 95.2447 23.6203H86.7355ZM101.519 27.0283C102.638 20.0382 99.1852 15.6431 92.0052 15.6431C85.2677 15.6431 79.8899 19.7588 78.7971 26.5917C77.6638 33.6704 82.1769 37.4951 89.0359 37.4951C93.7567 37.4951 98.7461 35.3067 100.687 30.4883H93.6267C92.6048 31.8384 91.3904 32.3604 89.8179 32.3604C86.7929 32.3604 85.4755 30.7543 85.9518 27.7812H101.403L101.523 27.0283H101.519Z" fill="white"/>
<path d="M116.572 21.9558C119.567 21.9558 120.969 24.0739 120.565 26.5885C120.151 29.1851 118.092 31.1845 115.096 31.1845C112.1 31.1845 110.681 29.1851 111.097 26.5885C111.499 24.0722 113.578 21.9558 116.572 21.9558ZM117.582 15.6416C110.907 15.6416 104.455 19.5984 103.337 26.5885C102.219 33.5803 107.453 37.4953 114.088 37.4953C120.722 37.4953 127.216 33.5385 128.328 26.5885C129.448 19.5984 124.256 15.6416 117.582 15.6416Z" fill="white"/>
<path d="M143.909 21.9558C146.9 21.9558 148.297 24.0739 147.897 26.5885C147.478 29.1851 145.424 31.1845 142.434 31.1845C139.445 31.1845 138.024 29.1851 138.443 26.5885C138.843 24.0722 140.919 21.9558 143.911 21.9558H143.909ZM140.353 16.3359H133.011L128.106 47.0017H135.45L137.393 34.8585C138.675 36.6537 140.999 37.4953 143.373 37.4953C149.491 37.4953 154.507 32.5413 155.452 26.627C156.392 20.7579 152.943 15.6416 146.787 15.6416C144.37 15.6416 141.722 16.6019 140.066 18.6381H139.985L140.353 16.3343V16.3359Z" fill="white"/>
<path d="M170.686 21.9558C173.698 21.9558 175.108 24.0739 174.708 26.5885C174.294 29.1851 172.222 31.1845 169.21 31.1845C166.199 31.1845 164.768 29.1851 165.182 26.5885C165.584 24.0722 167.675 21.9558 170.686 21.9558ZM183.415 16.3359H176.071L175.757 18.3202C174.5 16.5216 172.127 15.6416 169.732 15.6416C163.591 15.6416 158.563 20.6759 157.624 26.55C156.685 32.4209 160.177 37.4953 166.319 37.4953C168.752 37.4953 171.455 36.5768 173.081 34.5373H173.164L172.799 36.8026H180.143L183.415 16.3359Z" fill="white"/>
<path d="M195.054 19.6954H195.133C196.947 17.1774 199.548 16.0581 202.411 16.0581H203.823L202.707 23.0516C201.786 22.4927 200.839 22.3706 199.709 22.3706C195.633 22.3706 194.197 25.0492 193.637 28.5493L192.317 36.8009H184.977L188.247 16.3375H195.591L195.055 19.6954H195.054Z" fill="white"/>
<path d="M216.737 21.9558C219.766 21.9558 221.178 24.0739 220.777 26.5885C220.362 29.1851 218.289 31.1844 215.276 31.1844C212.263 31.1844 210.834 29.1851 211.25 26.5885C211.653 24.0722 213.736 21.9558 216.737 21.9558ZM218.867 36.8026H226.211L231.513 3.64062H224.171L221.821 18.3202C220.568 16.5216 218.197 15.6416 215.8 15.6416C209.66 15.6416 204.63 20.6759 203.693 26.55C202.752 32.4208 206.243 37.4953 212.388 37.4953C214.82 37.4953 217.524 36.5768 219.151 34.5373H219.229L218.867 36.8026Z" fill="white"/>
<path d="M244.094 21.9558C247.085 21.9558 248.487 24.0739 248.084 26.5885C247.668 29.1851 245.611 31.1845 242.616 31.1845C239.622 31.1845 238.203 29.1851 238.617 26.5885C239.019 24.0722 241.094 21.9558 244.094 21.9558ZM245.101 15.6416C238.424 15.6416 231.974 19.5984 230.856 26.5885C229.736 33.5803 234.973 37.4953 241.606 37.4953C248.239 37.4953 254.731 33.5385 255.846 26.5885C256.964 19.5984 251.774 15.6416 245.099 15.6416H245.101Z" fill="white"/>
<path d="M46.0222 0L35.0368 31.5006H20.5282L27.2015 12.4544L27.3046 12.1599H12.2065L16.4645 0H46.0222ZM14.5897 0L0 41.6227V0H14.5897ZM46.3785 4.34665V45.9426H31.8716L46.3785 4.34665ZM24.8149 13.915L18.1417 32.9612L18.0386 33.2557H34.4254L30.0002 45.9443H0.359759L11.5917 13.915H24.8149Z" fill="white"/>
</g>
<defs>
<clipPath id="clip0_3022_5646">
<rect width="256" height="47" fill="white"/>
</clipPath>
</defs>
</svg>
