<svg width="269" height="127" viewBox="0 0 269 127" fill="none" xmlns="http://www.w3.org/2000/svg">
<g clip-path="url(#clip0_2996_12859)">
<path d="M5.02659 46.1408L14.7996 36.1008L253.777 36.0612L263.566 45.9744L263.589 80.1989L253.922 89.9864L14.8801 90.0207L5.00093 80.0152L5.02659 46.1408Z" stroke="white" stroke-width="6"/>
<path fill-rule="evenodd" clip-rule="evenodd" d="M143.298 46.2842H160.875V51.8925H149.991V60.036H159.863V65.6427H149.991V74.3242H160.969V79.933H143.298V46.2842ZM123.941 46.2842H130.634V74.2274H140.023V79.933H123.941V46.2842ZM99.4307 75.4958V50.7214L103.813 46.2842H115.61L119.944 50.7214V57.5003H113.299V53.2087L111.758 51.648H107.666L106.076 53.2576V73.1047L107.666 74.7144H111.758L113.299 73.1547V68.6191H119.944V75.4958L115.61 79.933H103.813L99.4307 75.4958ZM74.8725 75.642V69.887H81.5655V73.2025L82.9622 74.6176H87.5846L88.9813 73.2025V66.9606L87.9216 65.8384H78.6767L75.0168 62.1815V50.6241L79.3023 46.2842H91.3405L95.5777 50.5752V56.3297H88.8847V53.0136L87.4875 51.5991H83.107L81.7104 53.0136V59.0116L82.7696 60.0854H92.0144L95.626 63.7912V75.5936L91.3405 79.933H79.1102L74.8725 75.642ZM50.3631 75.4958V46.2842H57.0567V72.8129L58.6459 74.4225H62.7377L64.327 72.8129V46.2842H71.02V75.4958L66.5902 79.933H54.7457L50.3631 75.4958ZM14.9697 46.2842H25.0334L30.281 73.3482L35.5306 46.2842H45.6888V79.933H39.3815V51.5991L33.5556 79.933H26.334L20.507 51.5991V79.933H14.9697V46.2842Z" fill="#FEFEFE"/>
<path fill-rule="evenodd" clip-rule="evenodd" d="M174.356 46.2842H184.421L189.669 73.3482L194.916 46.2842H205.075V79.933H198.768V51.5991L192.942 79.933H185.721L179.893 51.5991V79.933H174.356V46.2842Z" fill="#FEFEFE"/>
<path fill-rule="evenodd" clip-rule="evenodd" d="M216.299 66.8627H222.173L219.236 50.0388L216.299 66.8627ZM214.519 46.2842H224.339L231.033 79.933H224.436L223.089 72.2271H215.383L214.037 79.933H207.826L214.519 46.2842Z" fill="#FEFEFE"/>
<path fill-rule="evenodd" clip-rule="evenodd" d="M233.249 75.4958V50.7219L237.632 46.2842H249.429L253.762 50.7219V57.5003H247.116V53.2087L245.575 51.648H241.483L239.894 53.2576V73.1047L241.483 74.7149H245.575L247.116 73.1547V68.6191H253.762V75.4958L249.429 79.933H237.632L233.249 75.4958Z" fill="#FEFEFE"/>
<path fill-rule="evenodd" clip-rule="evenodd" d="M256.15 78.3926C256.382 78.3926 256.59 78.3758 256.59 78.0939C256.59 77.8667 256.387 77.8247 256.196 77.8247H255.822V78.3926H256.15ZM255.822 79.4228H255.548V77.5896H256.237C256.664 77.5896 256.876 77.7489 256.876 78.1107C256.876 78.4389 256.673 78.5814 256.407 78.6156L256.922 79.4228H256.615L256.138 78.6277H255.822V79.4228ZM256.154 79.8303C256.864 79.8303 257.424 79.2671 257.424 78.5015C257.424 77.7489 256.864 77.1815 256.154 77.1815C255.436 77.1815 254.876 77.7489 254.876 78.5015C254.876 79.2671 255.436 79.8303 256.154 79.8303ZM254.56 78.5015C254.56 77.5896 255.291 76.9165 256.154 76.9165C257.009 76.9165 257.74 77.5896 257.74 78.5015C257.74 79.4228 257.009 80.0953 256.154 80.0953C255.291 80.0953 254.56 79.4228 254.56 78.5015Z" fill="#FEFEFE"/>
</g>
<defs>
<clipPath id="clip0_2996_12859">
<rect width="265" height="61" fill="white" transform="translate(2 32.5356)"/>
</clipPath>
</defs>
</svg>
