<svg width="269" height="126" viewBox="0 0 269 126" fill="none" xmlns="http://www.w3.org/2000/svg">
<path d="M167.706 94.9037H169.927C175.176 94.9037 177.397 93.0864 177.397 88.846C177.397 84.6056 174.772 83.1921 170.936 83.1921C169.927 83.1921 168.716 83.3941 168.11 83.9998C167.504 84.6056 167.706 85.4133 167.706 86.221V94.9037Z" fill="white"/>
<path d="M169.928 96.9231H167.505V105.606C167.505 109.24 167.505 110.654 171.745 110.654C175.782 110.654 178.811 108.635 178.811 103.385C178.811 99.75 177.6 96.9231 169.928 96.9231Z" fill="white"/>
<path d="M176.994 6.05762H93.0062C84.1229 6.05762 77.0566 13.1249 77.0566 21.8076V104.394C77.0566 113.077 84.1229 120.144 93.0062 120.144H176.994C185.877 120.144 192.943 113.077 192.943 104.394V21.8076C192.943 13.1249 185.675 6.05762 176.994 6.05762ZM87.1513 83.3942V81.9807H99.2648L105.927 100.76L112.792 81.9807H124.703V83.3942C121.675 83.5961 120.665 83.9999 120.665 87.2307V107.019C120.665 109.846 121.675 110.856 124.703 110.856V112.269H109.763V110.856C112.792 110.856 113.801 110.048 113.801 107.019V85.4134L104.514 112.067H103.101L93.6118 86.2211V102.981C93.6118 109.644 94.0156 110.452 97.6497 110.654V112.067H86.7475V110.654C90.5835 110.048 91.1891 109.442 91.1891 102.981V87.2307C91.1891 83.9999 89.7759 83.3942 87.1513 83.3942ZM136.413 86.8269L142.874 104.596L148.325 89.048C148.527 88.2403 148.93 87.2307 148.93 86.2211C148.93 84.2019 147.315 83.3942 145.498 83.1922V81.7788H155.795V83.1922C153.17 83.798 151.959 83.9999 150.142 89.6538L142.268 112.471H138.836L130.356 89.2499C129.347 86.6249 128.741 83.5961 125.511 83.1922V81.7788H139.24V83.1922C136.211 83.3942 136.009 83.9999 136.009 85.0095C136.009 85.6153 136.211 86.2211 136.413 86.8269ZM156.804 112.067V110.654C159.833 110.654 160.842 109.846 160.842 106.817V87.0288C160.842 84.2019 159.833 83.1922 156.804 83.1922V81.7788H171.946C182.445 81.7788 184.867 85.0095 184.867 88.6442C184.867 92.8845 180.426 94.9038 176.994 95.5095C181.637 96.3172 186.281 98.1345 186.281 103.586C186.281 108.433 182.647 111.663 174.571 111.663H156.804V112.067ZM82.3059 80.1634V72.6922H88.9683L82.3059 80.1634ZM82.3059 70.673V65.0192H95.4289L90.5835 70.673H82.3059ZM82.3059 57.548H101.889L97.044 63.2018H82.3059V57.548ZM117.637 57.548H140.451L135.606 63.2018H123.896L117.637 57.548ZM109.158 50.0768H146.912L142.066 55.7307H115.416L109.158 50.0768ZM82.3059 42.6057H153.574L148.729 48.2595H82.3059V42.6057ZM133.99 65.0192L130.558 69.0576L126.117 65.0192H133.99ZM187.694 59.9711L185.271 57.3461H187.694V59.9711ZM187.694 55.5288H183.252L178.003 50.0768H187.896V55.5288H187.694ZM187.694 48.0576H175.984L170.533 42.4038H187.694V48.0576ZM187.694 40.5865H168.716L163.265 34.9326H187.694V40.5865ZM155.189 40.5865H82.3059V34.9326H160.035L155.189 40.5865ZM82.3059 50.0768H108.552L103.706 55.7307H82.3059V50.0768ZM187.694 33.1153H82.3059V27.4615H187.694V33.1153ZM82.3059 25.6442V21.8076C82.3059 21.2018 82.3059 20.5961 82.5077 20.1922H187.694C187.694 20.798 187.896 21.2018 187.896 21.8076V25.6442H82.3059ZM93.0062 11.1057H176.994C181.637 11.1057 185.675 13.9326 187.088 18.173H82.9115C84.3248 14.1345 88.3626 11.1057 93.0062 11.1057Z" fill="white"/>
</svg>
