<svg width="269" height="127" viewBox="0 0 269 127" fill="none" xmlns="http://www.w3.org/2000/svg">
<g clip-path="url(#clip0_2996_3067)">
<path d="M70.414 37.6938V47.6376H70.6573C74.3242 39.247 81.3835 35.4112 89.9339 34.8632C90.6569 34.8178 91.0983 34.6747 91.6718 35.2506C92.2419 35.8265 92.1341 36.6119 92.1341 36.6119V42.2312C92.1341 42.2312 92.294 43.6971 91.5641 44.1159C90.5839 44.6779 90.424 44.6116 89.5898 44.6674C79.458 45.3515 71.0153 49.4945 71.0153 65.5951V83.4234C71.0153 83.4234 70.9944 84.1948 71.3976 84.6032C71.8043 85.0115 72.7532 85.0255 72.7532 85.0255H77.8104C77.8104 85.0255 78.6968 85.0709 79.1938 85.4373C79.6908 85.8038 79.7221 86.8265 79.7221 86.8265V91.0916C79.7221 91.0916 79.8472 92.4528 79.4023 92.8996C78.9609 93.3428 77.4976 93.2625 77.4976 93.2625H54.8182C54.8182 93.2625 53.7615 93.3289 53.3862 92.9484C53.0108 92.568 53.0143 91.664 53.0143 91.664V86.453C53.0143 86.453 53.1116 85.734 53.4383 85.4059C53.765 85.0813 54.6618 85.0185 54.6618 85.0185H58.9648C58.9648 85.0185 59.9832 84.9347 60.3203 84.5962C60.6575 84.2576 60.6332 83.3152 60.6332 83.3152V45.882C60.6332 45.882 60.6436 45.2922 60.369 45.0199C59.9728 44.6185 59.4062 44.6779 59.4062 44.6779H54.4915C54.4915 44.6779 53.6468 44.7477 53.3445 44.4405C52.8996 43.9973 53.0143 43.1491 53.0143 43.1491V37.823C53.0143 37.823 52.9204 37.0865 53.334 36.6747C53.6573 36.3501 54.7278 36.4373 54.7278 36.4373H69.1106C69.1106 36.4373 69.7814 36.3222 70.1255 36.6677C70.4696 37.0132 70.4105 37.6834 70.4105 37.6834" fill="white"/>
<path d="M174.097 34.7688H180.631C180.631 34.7688 181.479 34.5978 182.122 35.2505C182.696 35.8264 182.56 36.6466 182.56 36.6466V42.7546C182.56 42.7546 182.664 43.8156 182.23 44.2519C181.723 44.7615 180.593 44.6847 180.593 44.6847H174.058C174.058 44.6847 172.877 44.5835 172.359 45.0931C171.837 45.6027 171.938 46.5974 171.938 46.5974V76.7883C171.938 84.6624 173.026 85.151 177.246 85.151C178.209 85.151 179.213 85.0707 180.211 84.98C180.961 84.9102 181.246 84.8508 181.827 85.3604C182.452 85.9119 182.439 86.6937 182.439 86.6937V91.0914C182.439 91.0914 182.477 92.1525 181.959 92.7458C181.57 93.1891 181.083 93.6463 180.398 93.7929C178.136 94.2816 175.824 94.498 173.506 94.498C163.857 94.498 161.563 91.793 161.563 79.6154V46.4892C161.563 46.4892 161.619 45.648 161.198 45.1943C160.666 44.6149 159.776 44.6812 159.776 44.6812H154.25C154.25 44.6812 153.218 44.8523 152.512 44.1437C151.973 43.6027 152.029 42.3672 152.029 42.3672V36.678C152.029 36.678 152.022 35.98 152.651 35.3482C153.277 34.7165 154.285 34.7654 154.285 34.7654H159.738C159.738 34.7654 160.739 34.8875 161.208 34.4163C161.653 33.9696 161.563 32.9399 161.563 32.9399V18.6019C161.563 18.6019 161.414 17.8445 162.036 17.2197C162.658 16.595 163.562 16.7695 163.562 16.7695H169.543C169.543 16.7695 170.802 16.6089 171.552 17.1709C172.109 17.5967 171.942 18.9509 171.942 18.9509V32.9155C171.942 32.9155 171.806 33.9382 172.341 34.4757C172.877 35.0132 174.097 34.7723 174.097 34.7723" fill="white"/>
<path d="M213.129 93.266H191.413C191.413 93.266 190.391 93.3498 189.779 92.7355C189.133 92.0828 189.14 91.2452 189.14 91.2452V86.8544C189.14 86.8544 188.997 86.261 189.668 85.5909C190.339 84.9208 191.34 85.0255 191.34 85.0255H195.264C195.264 85.0255 196.397 85.0499 196.891 84.5508C197.454 83.9924 197.367 82.7254 197.367 82.7254V46.437C197.367 46.437 197.461 45.7599 196.804 45.1037C196.154 44.4475 195.222 44.6849 195.222 44.6849H191.854C191.854 44.6849 190.853 44.636 190.12 43.9379C189.404 43.2573 189.498 42.1928 189.498 42.1928V36.7933C189.498 36.7933 189.425 35.9801 190.12 35.282C190.815 34.577 192.184 34.769 192.184 34.769H205.378C205.378 34.769 206.56 34.755 207.203 35.3937C207.843 36.0359 207.742 36.8317 207.742 36.8317V82.6521C207.742 82.6521 207.69 83.8527 208.378 84.5473C209.073 85.2419 210.418 85.022 210.418 85.022H212.827C212.827 85.022 214.169 84.9627 214.826 85.6223C215.489 86.289 215.364 87.001 215.364 87.001V90.76C215.364 90.76 215.496 91.9083 214.791 92.6203C214.078 93.3323 213.122 93.2625 213.122 93.2625" fill="white"/>
<path d="M143.453 21.4222V26.2946C143.453 26.2946 143.606 28.0572 143.04 28.6261C142.47 29.195 140.965 29.01 140.965 29.01H101.334C101.334 29.01 100.145 29.1671 99.3979 28.4167C98.6541 27.6663 98.8244 26.6122 98.8244 26.6122V21.1988C98.8244 21.1988 98.6889 20.3855 99.4535 19.6212C100.215 18.8533 101.515 18.9929 101.515 18.9929H140.475C140.475 18.9929 141.955 18.7416 142.779 19.5688C143.599 20.396 143.457 21.4257 143.457 21.4257" fill="white"/>
<path d="M196.098 20.703C196.098 16.916 198.809 14.5356 202.298 14.5356C205.788 14.5356 208.499 16.916 208.499 20.703C208.499 24.4899 206.038 26.8668 202.298 26.8668C198.559 26.8668 196.098 24.6435 196.098 20.703Z" fill="white"/>
<path d="M92.1475 66.1778C92.1475 48.2413 104.99 36.9712 121.525 36.9712C138.059 36.9712 150.899 48.2448 150.899 66.1778C150.899 84.1109 139.241 95.3914 121.525 95.3914C103.809 95.3914 92.1475 84.8438 92.1475 66.1778ZM102.377 66.1778C102.377 78.6626 109.989 87.1474 121.525 87.1474C133.061 87.1474 140.669 78.6626 140.669 66.1778C140.669 53.6931 133.057 45.2117 121.525 45.2117C109.992 45.2117 102.377 53.6966 102.377 66.1778Z" fill="white"/>
<path d="M60.098 105.391L57.6476 110.319L55.1972 105.391H53.7061V112.441H55.1763V108.48L57.1123 112.441H58.1724L60.1084 108.48V112.441H61.5891V105.391H60.098Z" fill="white"/>
<path d="M66.0763 108.906C66.0763 110.263 66.9591 111.216 68.2174 111.216C69.4756 111.216 70.3585 110.263 70.3585 108.906C70.3585 107.548 69.486 106.605 68.2174 106.605C66.9487 106.605 66.0763 107.558 66.0763 108.906ZM71.8774 108.906C71.8774 111.063 70.3098 112.535 68.2243 112.535C66.1389 112.535 64.5713 111.066 64.5713 108.906C64.5713 106.745 66.1284 105.286 68.2243 105.286C70.3202 105.286 71.8774 106.756 71.8774 108.906Z" fill="white"/>
<path d="M76.3468 111.129H77.6224C78.7659 111.129 79.7252 110.392 79.7252 108.923C79.7252 107.453 78.7694 106.7 77.6224 106.7H76.3468V111.129ZM77.6224 105.387C79.6418 105.387 81.2372 106.602 81.2372 108.923C81.2372 111.244 79.6418 112.438 77.6224 112.438H74.873V105.387H77.6224Z" fill="white"/>
<path d="M84.2441 105.391V112.441H87.9354V111.129H85.7213V109.471H87.6539V108.19H85.7213V106.7H87.925V105.391H84.2441Z" fill="white"/>
<path d="M93.107 108.518C93.67 108.518 94.0628 108.208 94.0628 107.614C94.0628 107.021 93.67 106.7 93.107 106.7H92.4952V108.518H93.107ZM93.1904 109.827H92.4952V112.438H91.0215V105.388H93.1904C94.6189 105.388 95.5748 106.142 95.5748 107.611C95.5748 108.498 95.2272 109.119 94.6467 109.468L96.0544 112.438H94.4208L93.1904 109.827Z" fill="white"/>
<path d="M103.34 105.391V109.82L100.25 105.391H98.8525V112.441H100.326V107.981L103.416 112.441H104.813V105.391H103.34Z" fill="white"/>
<path d="M118.452 105.391L116.002 110.319L113.552 105.391H112.061V112.441H113.534V108.48L115.467 112.441H116.53L118.463 108.48V112.441H119.947V105.391H118.452Z" fill="white"/>
<path d="M123.273 105.391V112.441H126.961V111.129H124.747V109.471H126.68V108.19H124.747V106.7H126.951V105.391H123.273Z" fill="white"/>
<path d="M131.525 111.129H132.801C133.944 111.129 134.904 110.393 134.904 108.923C134.904 107.454 133.948 106.7 132.801 106.7H131.525V111.129ZM132.801 105.388C134.82 105.388 136.415 106.602 136.415 108.923C136.415 111.244 134.82 112.438 132.801 112.438H130.048V105.388H132.801Z" fill="white"/>
<path d="M140.892 105.391H139.418V112.441H140.892V105.391Z" fill="white"/>
<path d="M143.562 105.391V106.7H145.869V112.441H147.343V106.7H149.665V105.391H143.562Z" fill="white"/>
<path d="M152.352 105.391V112.441H156.043V111.129H153.825V109.471H155.758V108.19H153.825V106.7H156.032V105.391H152.352Z" fill="white"/>
<path d="M161.214 108.518C161.777 108.518 162.17 108.208 162.17 107.614C162.17 107.021 161.774 106.7 161.214 106.7H160.603V108.518H161.214ZM161.298 109.827H160.603V112.438H159.129V105.388H161.298C162.726 105.388 163.682 106.142 163.682 107.611C163.682 108.498 163.335 109.119 162.754 109.468L164.162 112.438H162.528L161.298 109.827Z" fill="white"/>
<path d="M169.042 108.518C169.605 108.518 169.997 108.208 169.997 107.614C169.997 107.021 169.601 106.7 169.042 106.7H168.43V108.518H169.042ZM169.125 109.827H168.43V112.438H166.956V105.388H169.125C170.553 105.388 171.509 106.142 171.509 107.611C171.509 108.498 171.162 109.119 170.581 109.468L171.989 112.438H170.355L169.125 109.827Z" fill="white"/>
<path d="M178.117 107.339L179.073 109.688H177.158L178.114 107.339H178.117ZM177.349 105.388L174.45 112.438H176.056L176.657 110.976H179.594L180.185 112.438H181.788L178.896 105.388H177.346H177.349Z" fill="white"/>
<path d="M188.966 105.391V109.82L185.876 105.391H184.479V112.441H185.952V107.981L189.042 112.441H190.439V105.391H188.966Z" fill="white"/>
<path d="M193.762 105.391V112.441H197.45V111.129H195.235V109.471H197.168V108.19H195.235V106.7H197.439V105.391H193.762Z" fill="white"/>
<path d="M203.679 107.339L204.635 109.688H202.719L203.675 107.339H203.679ZM202.911 105.388L200.012 112.438H201.618L202.219 110.976H205.159L205.75 112.438H207.356L204.464 105.388H202.914H202.911Z" fill="white"/>
<path d="M214.526 105.391V109.82L211.44 105.391H210.039V112.441H211.513V107.981L214.603 112.441H216V105.391H214.526Z" fill="white"/>
<path d="M211.019 38.2138V37.5263H211.415C211.637 37.5263 211.801 37.6275 211.801 37.8718C211.801 38.1161 211.641 38.2138 211.415 38.2138H211.019ZM212.121 37.8718C212.121 37.4669 211.846 37.275 211.436 37.275H210.706V39.2435H211.019V38.4721H211.498L211.87 39.2435H212.211L211.801 38.4023C211.999 38.3185 212.121 38.144 212.121 37.8753M211.384 39.6763C210.55 39.6763 209.945 39.0655 209.945 38.2557C209.945 37.446 210.553 36.8422 211.384 36.8422C212.214 36.8422 212.823 37.453 212.823 38.2557C212.823 39.0585 212.208 39.6763 211.384 39.6763ZM211.384 36.6362C210.431 36.6362 209.712 37.3448 209.712 38.2557C209.712 39.1667 210.428 39.8822 211.384 39.8822C212.34 39.8822 213.056 39.1806 213.056 38.2557C213.056 37.3308 212.333 36.6362 211.384 36.6362Z" fill="white"/>
</g>
<defs>
<clipPath id="clip0_2996_3067">
<rect width="163" height="98" fill="white" transform="translate(53 14.5356)"/>
</clipPath>
</defs>
</svg>
