<svg width="269" height="126" viewBox="0 0 269 126" fill="none" xmlns="http://www.w3.org/2000/svg">
<path d="M144.349 86.1668C144.349 85.8731 144.349 85.6229 144.349 85.37C144.336 80.653 144.325 75.936 144.315 71.2215C144.312 69.9472 144.291 68.6702 144.325 67.3984C144.341 66.8621 144.216 66.6527 143.601 66.6629C141.495 66.7012 139.389 66.6935 137.283 66.6654C136.742 66.6578 136.548 66.7957 136.564 67.3371C136.614 69.204 136.617 71.0734 136.638 72.9429C136.638 73.1625 136.638 73.3847 136.638 73.7371C136.388 73.5481 136.263 73.4715 136.159 73.3745C133.914 71.3211 131.664 69.2755 129.436 67.2069C129.028 66.8289 128.613 66.6501 128.03 66.6603C125.969 66.6935 123.905 66.6731 121.845 66.6756C121.608 66.6756 121.373 66.6961 121.195 66.7037V86.1719C121.496 86.1873 121.714 86.2051 121.93 86.2051C124.015 86.2051 126.097 86.1898 128.182 86.2179C128.738 86.2256 128.895 86.0647 128.89 85.536C128.869 82.0296 128.879 78.5256 128.879 75.0192C128.879 74.7791 128.879 74.539 128.879 74.1662C129.172 74.396 129.329 74.5058 129.468 74.631C131.609 76.5719 133.725 78.5384 135.898 80.4436C136.484 80.9569 136.681 81.4856 136.654 82.2134C136.606 83.521 136.641 84.8312 136.641 86.1617H144.352L144.349 86.1668ZM95.2501 86.1617H102.961C102.961 85.4441 102.961 84.7673 102.961 84.088C102.961 80.6658 102.956 77.2461 102.961 73.8239C102.964 72.3708 103.8 71.574 105.288 71.574C105.642 71.574 105.997 71.574 106.353 71.574C107.767 71.574 109.181 71.574 110.648 71.574V78.0991H105.443V82.9745H110.72V86.1643H118.359C118.378 86.0264 118.402 85.9242 118.402 85.8221C118.388 79.6187 118.367 73.4128 118.367 67.2094C118.367 66.7216 118.144 66.6629 117.723 66.6629C112.203 66.6705 106.681 66.668 101.161 66.668C99.6062 66.668 98.3122 67.2349 97.303 68.3587C96.0489 69.7582 95.3486 71.408 95.2874 73.2366C95.2049 75.6781 95.2501 78.1221 95.2448 80.5662C95.2421 82.3922 95.2448 84.2182 95.2448 86.1515L95.2501 86.1617ZM157.295 86.1617C157.484 86.1822 157.615 86.2077 157.742 86.2077C160.027 86.2102 162.311 86.2205 164.596 86.2077C165.579 86.2026 166.471 85.8859 167.248 85.3189C169.032 84.0216 169.972 82.2262 170.145 80.1448C170.313 78.094 170.249 76.0279 170.257 73.967C170.262 72.4985 169.897 71.099 169.176 69.8093C168.025 67.7508 166.295 66.6424 163.765 66.6654C158.464 66.714 153.163 66.6808 147.864 66.6808C147.606 66.6808 147.347 66.6808 147.116 66.6808C147.081 66.8212 147.063 66.8621 147.063 66.9029C147.07 73.1727 147.086 79.4425 147.084 85.7148C147.084 86.1822 147.318 86.2205 147.702 86.2179C149.541 86.2077 151.384 86.2128 153.224 86.2128C154.253 86.2128 154.768 85.7293 154.768 84.7622C154.768 80.745 154.768 76.7277 154.768 72.7105C154.768 72.3555 154.768 72.003 154.768 71.5995C156.84 71.5995 158.853 71.5663 160.863 71.6302C161.238 71.6429 161.752 71.9622 161.933 72.2789C162.261 72.8509 162.524 73.5226 162.564 74.1662C162.655 75.6704 162.602 77.1823 162.591 78.6916C162.578 80.5662 161.694 81.4064 159.758 81.409C158.949 81.409 158.139 81.409 157.303 81.409V86.1668L157.295 86.1617ZM173.026 86.1541H180.689C180.689 83.6998 180.689 81.2991 180.689 78.9011C180.689 76.503 180.689 74.0691 180.689 71.6174C180.929 71.5995 181.102 71.5791 181.272 71.5791C182.934 71.5765 184.598 71.574 186.259 71.5791C187.447 71.5791 188.304 72.2508 188.419 73.3949C188.501 74.2147 188.507 75.0575 188.4 75.8722C188.2 77.407 187.324 78.0889 185.727 78.0889C184.893 78.0889 184.057 78.0889 183.022 78.0889C183.184 78.9726 183.117 79.8639 183.506 80.4921C184.622 82.2977 185.937 83.9884 187.143 85.7429C187.399 86.1158 187.689 86.2205 188.128 86.2179C190.522 86.2 192.916 86.2102 195.312 86.2077C195.525 86.2077 195.738 86.1873 196.076 86.1668C195.022 84.609 194.032 83.143 193.028 81.6643C196.303 78.7376 196.809 75.1622 195.714 71.2854C194.817 68.1109 192.706 66.6782 189.3 66.6782C184.156 66.6782 179.014 66.6782 173.87 66.6782C173.59 66.6782 173.311 66.6782 173.026 66.6782V86.1541ZM47.5302 86.2102C47.8204 86.2102 48.0787 86.2102 48.3397 86.2102C53.3507 86.2102 58.3645 86.1924 63.3756 86.2205C64.8188 86.2281 65.9717 85.7173 66.8823 84.706C68.8686 82.502 69.0124 79.9711 68.0965 77.3457C67.2764 74.9936 65.7187 74.0078 63.1493 74.0053C60.9313 74.0053 58.7133 74.0104 56.4953 74.0027C55.6033 74.0002 55.2545 73.7192 55.1747 72.9888C55.0708 72.0362 55.5128 71.5765 56.5379 71.5765C60.2869 71.5765 64.0333 71.5765 67.7823 71.5765H68.4719V66.6756C68.1524 66.6756 67.8914 66.6756 67.6278 66.6756C62.6833 66.6756 57.7361 66.6961 52.7916 66.6654C50.8425 66.6527 49.4313 67.4801 48.4515 69.0227C47.2586 70.8972 47.1947 72.9352 47.7672 74.9885C48.5021 77.6241 50.1955 78.8091 53.0312 78.8091C55.2039 78.8091 57.3793 78.804 59.552 78.8117C60.46 78.8142 60.7902 79.1411 60.8141 80.0043C60.8408 80.9671 60.4041 81.3987 59.371 81.3987C55.6886 81.4013 52.0088 81.3987 48.3263 81.3987C48.0681 81.3987 47.8124 81.3987 47.5275 81.3987V86.2051L47.5302 86.2102ZM92.4384 81.4039C92.1242 81.4039 91.8632 81.4039 91.6023 81.4039C88.2527 81.4039 84.9031 81.3604 81.5561 81.4217C79.7615 81.4549 79.1118 80.3006 79.0666 79.1845C78.9947 77.3815 79 75.5708 79.0612 73.7652C79.1092 72.2942 79.9639 71.5765 81.4709 71.5765C84.8871 71.5765 88.3033 71.5765 91.7168 71.5765H92.4011V66.7165C92.2493 66.7012 92.1401 66.6808 92.031 66.6808C87.0838 66.6808 82.1393 66.6731 77.1921 66.6808C75.9246 66.6808 74.801 67.0843 73.8744 67.9322C72.4499 69.2321 71.6192 70.8589 71.4807 72.7054C71.3209 74.8404 71.3715 76.9908 71.3635 79.136C71.3582 80.3568 71.5659 81.552 72.1384 82.6553C73.3126 84.9231 75.0407 86.2843 77.8737 86.2332C82.4641 86.149 87.0545 86.2102 91.6476 86.2102C91.9032 86.2102 92.1614 86.2102 92.4384 86.2102V81.4039ZM226.96 81.4039C226.628 81.4039 226.364 81.4039 226.1 81.4039C223.882 81.4039 221.667 81.409 219.449 81.4039C218.302 81.3987 217.617 80.9161 217.3 79.8639C217.199 79.5242 217.162 79.1539 217.159 78.7989C217.146 75.0166 217.146 71.2343 217.143 67.452C217.143 67.2222 217.143 66.9923 217.143 66.7318H209.475C209.456 66.9081 209.435 67.0332 209.435 67.1583C209.446 71.2803 209.435 75.4022 209.478 79.5242C209.494 80.9467 209.904 82.2926 210.718 83.498C211.874 85.204 213.405 86.2511 215.644 86.223C219.146 86.1796 222.65 86.2102 226.154 86.2102C226.415 86.2102 226.673 86.2102 226.96 86.2102V81.4039ZM229.461 66.7063C229.439 66.8468 229.418 66.931 229.418 67.0128C229.418 71.1117 229.402 75.2107 229.439 79.3097C229.45 80.6556 229.764 81.9606 230.483 83.1481C231.684 85.1274 233.343 86.2843 235.864 86.2281C239.296 86.1541 242.734 86.2102 246.169 86.2077C246.422 86.2077 246.677 86.1847 246.92 86.1719V81.4039C246.616 81.4039 246.355 81.4039 246.094 81.4039C243.879 81.4039 241.664 81.409 239.446 81.4039C238.29 81.4013 237.568 80.8854 237.268 79.8153C237.161 79.4323 237.121 79.0211 237.121 78.6201C237.11 75.6244 237.116 72.6313 237.116 69.6356V66.7063H229.463H229.461ZM206.607 86.1668V66.7344H198.987V86.1668H206.607ZM262.821 89.5022C261.364 89.5022 260.102 89.423 258.862 89.5354C258.212 89.5941 257.568 89.944 256.976 90.2556C256.401 90.5595 256.14 91.0779 256.154 91.7471C256.183 93.3407 256.204 94.9343 256.148 96.5254C256.116 97.4141 256.526 97.9683 257.275 98.3795C258.981 99.3167 260.821 98.9158 262.656 98.9081C262.568 98.6706 262.446 98.5097 262.302 98.3718C261.663 97.7512 261.072 97.0719 260.363 96.5381C259.354 95.7796 258.941 94.85 259.17 93.6676C259.237 93.3202 259.373 92.9295 259.612 92.6792C260.47 91.7905 261.386 90.9553 262.275 90.0972C262.424 89.9542 262.557 89.7933 262.821 89.5047V89.5022ZM261.458 94.7479C261 94.6074 260.683 94.421 260.387 94.449C260.124 94.4746 259.855 94.7095 259.658 94.9139C259.594 94.9803 259.695 95.2918 259.812 95.4068C260.875 96.459 261.953 97.4984 263.042 98.525C263.154 98.6298 263.425 98.6962 263.556 98.6374C264.08 98.4101 264.139 97.4396 263.662 97.0004C263.753 96.8676 263.846 96.7322 263.993 96.5177C263.26 95.8256 262.533 95.1386 261.809 94.4516C261.615 94.6125 261.482 94.7249 261.458 94.7453V94.7479ZM261.83 94.0021C262.571 93.2768 263.274 92.5847 263.995 91.8773C263.854 91.6985 263.753 91.5683 263.665 91.4585C263.969 91.0652 264.328 90.7204 263.785 90.2684C263.62 90.1304 263.527 89.9108 263.399 89.7295C263.172 89.8853 262.922 90.0181 262.725 90.202C261.783 91.0984 260.845 92.005 259.927 92.9244C259.778 93.0725 259.599 93.402 259.668 93.499C259.82 93.7186 260.11 93.9664 260.358 93.9766C260.643 93.9894 260.938 93.7595 261.229 93.6369C261.263 93.6216 261.303 93.619 261.356 93.6088C261.482 93.711 261.615 93.8208 261.833 93.9996L261.83 94.0021ZM266 94.2115C265.281 93.5603 264.589 92.932 263.78 92.1991C263.78 92.457 263.811 92.5668 263.774 92.5975C263.319 92.9806 262.842 93.3458 262.39 93.734C262.238 93.8642 262.049 94.0481 262.046 94.2115C262.046 94.3622 262.246 94.541 262.395 94.6661C262.909 95.0952 263.439 95.5064 264.04 95.989C264.602 95.4808 265.276 94.8679 265.997 94.2141L266 94.2115Z" fill="white"/>
<path d="M246.951 92.3931C246.981 92.079 247.002 91.8491 247.026 91.5759C247.26 91.5657 247.476 91.5478 247.694 91.5478C250.157 91.5478 252.618 91.5606 255.081 91.535C255.642 91.5299 255.866 91.6423 255.845 92.2322C255.797 93.5475 255.831 94.8678 255.829 96.1856C255.829 96.3925 255.807 96.5994 255.794 96.8318H247.061C247.018 96.653 246.975 96.4768 246.917 96.2239C246.688 96.2239 246.448 96.2239 246.209 96.2239C239.222 96.2239 232.235 96.2239 225.248 96.2239C161.241 96.2239 97.231 96.2239 33.2237 96.229C29.0939 96.229 25.4035 95.1028 22.3281 92.4059C19.4445 89.8776 18.0466 86.6801 17.9774 82.954C17.9374 80.8777 17.9694 78.7988 17.9694 76.5974C17.7351 76.7889 17.5833 76.8936 17.4502 77.0213C14.5932 79.754 11.7521 82.5045 8.87379 85.2167C8.32529 85.7352 8.39452 86.3762 8.24807 86.9738C8.0963 87.5918 8.02973 88.2277 7.92057 88.8918H3C5.92891 71.9085 8.84983 54.9737 11.7867 37.9445H9.3291V33.2939C9.58738 33.2837 9.843 33.2632 10.0986 33.2632C12.495 33.2632 14.8887 33.2505 17.2851 33.2709C17.7644 33.2734 17.98 33.1636 17.9401 32.6682C17.8895 32.0374 18.1371 31.1844 17.799 30.8294C17.4821 30.4974 16.5662 30.6864 15.9138 30.6506C15.7381 30.6404 15.5624 30.6506 15.328 30.6506V26H24.4929V30.6327H22.0912V33.253H30.5344V37.9343H28.0768C31.0004 54.9814 33.9026 71.9238 36.8129 88.902H31.9057C31.7379 87.9621 31.5808 87.007 31.3918 86.0595C31.3492 85.845 31.2427 85.6049 31.0882 85.4542C28.1806 82.6501 25.2597 79.8561 22.3414 77.0622C22.2829 77.006 22.2083 76.9677 22.1364 76.9166C22.0885 76.9677 22.0379 76.9958 22.0379 77.0265C22.0805 79.5037 21.753 81.9988 22.3175 84.4557C23.2494 88.5189 26.4499 91.4456 30.7394 92.125C31.7832 92.291 32.8536 92.3829 33.9106 92.3829C104.596 92.3957 175.278 92.3931 245.964 92.3931H246.946H246.951ZM28.146 67.0178C26.2901 68.7953 24.4582 70.5498 22.7222 72.2124C25.1931 74.5849 27.7306 77.0239 30.2788 79.4705C29.5679 75.3256 28.8543 71.1449 28.146 67.0178ZM17.0268 72.2788C15.2615 70.5856 13.4535 68.854 11.6696 67.1455C10.972 71.1883 10.2557 75.3383 9.54744 79.445C12.0796 77.0188 14.6091 74.5952 17.0268 72.2813V72.2788ZM17.9002 55.5611C17.8522 55.533 17.807 55.5024 17.759 55.4743C16.6381 56.5546 15.565 57.6834 14.3828 58.6973C13.3124 59.6141 12.5669 60.6127 12.5269 62.0429C12.5163 62.431 12.5216 62.7094 12.8278 63.0006C14.3775 64.4588 15.9058 65.9401 17.4448 67.4111C17.5567 67.5184 17.7005 67.6001 17.9002 67.7457V55.5637V55.5611ZM22.0938 67.549C22.1977 67.4954 22.2642 67.4801 22.3042 67.4392C23.9204 65.8967 25.534 64.3516 27.1449 62.8039C27.2354 62.7171 27.3659 62.5792 27.3446 62.4949C27.0863 61.5219 27.3446 60.4186 26.3993 59.6192C25.486 58.8505 24.6633 57.9822 23.8059 57.1547C23.268 56.6337 22.7408 56.1051 22.0965 55.4666V67.5465L22.0938 67.549ZM17.8203 46.6838C17.8868 46.4821 17.9215 46.4259 17.9215 46.3697C17.9268 43.7162 17.9348 41.0602 17.9108 38.4067C17.9108 38.2509 17.6445 37.993 17.4715 37.9649C17.1333 37.9113 16.7046 37.8091 16.6141 38.371C16.3052 40.2966 15.9697 42.2197 15.6582 44.1478C15.6316 44.3164 15.6449 44.559 15.7487 44.6688C16.3958 45.3328 17.0747 45.9688 17.8176 46.6864L17.8203 46.6838ZM22.0858 46.4131C22.1417 46.4438 22.1977 46.477 22.2536 46.5076C22.7701 45.9841 23.2547 45.4248 23.8112 44.9472C24.2186 44.5973 24.2665 44.2296 24.1813 43.7597C23.8751 42.092 23.5849 40.4217 23.2973 38.7515C23.1402 37.8423 23.055 37.7836 22.0858 38.0492V46.4106V46.4131ZM22.6237 50.959C23.7447 52.0317 24.8656 53.1068 25.9413 54.1361C25.6431 52.4071 25.3236 50.5632 25.0174 48.7806C24.1813 49.5416 23.3559 50.2925 22.6263 50.9565L22.6237 50.959ZM14.8541 48.6963C14.5346 50.5555 14.223 52.3739 13.9009 54.2586C15.0937 53.1068 16.1934 52.0444 17.2531 51.0229C16.5049 50.2976 15.7168 49.534 14.8541 48.6963Z" fill="white"/>
<path d="M144.349 86.1669H136.638C136.638 84.8337 136.604 83.5236 136.652 82.2186C136.678 81.4907 136.484 80.9621 135.895 80.4487C133.72 78.5435 131.606 76.577 129.465 74.6361C129.324 74.5084 129.167 74.4011 128.877 74.1713C128.877 74.5442 128.877 74.7842 128.877 75.0243C128.877 78.5308 128.866 82.0372 128.887 85.5412C128.89 86.0698 128.733 86.2307 128.179 86.223C126.097 86.1949 124.012 86.2128 121.927 86.2103C121.712 86.2103 121.493 86.1898 121.192 86.1771V66.7089C121.371 66.7012 121.608 66.6808 121.842 66.6808C123.903 66.6808 125.967 66.7012 128.027 66.6655C128.611 66.6552 129.026 66.834 129.433 67.212C131.665 69.2781 133.912 71.3263 136.156 73.3796C136.263 73.4766 136.385 73.5533 136.636 73.7422C136.636 73.3873 136.636 73.1676 136.636 72.948C136.614 71.0786 136.614 69.2117 136.561 67.3422C136.545 66.7983 136.74 66.6629 137.28 66.6706C139.386 66.6961 141.492 66.7038 143.599 66.668C144.216 66.6578 144.339 66.8672 144.323 67.4035C144.285 68.6779 144.309 69.9523 144.312 71.2267C144.323 75.9437 144.336 80.6607 144.347 85.3752C144.347 85.6254 144.347 85.8783 144.347 86.172L144.349 86.1669Z" fill="white"/>
<path d="M95.2499 86.1617C95.2499 84.2284 95.2472 82.4024 95.2499 80.5764C95.2552 78.1323 95.2099 75.6883 95.2925 73.2468C95.3537 71.4182 96.054 69.7658 97.3081 68.3689C98.3146 67.2452 99.6113 66.6782 101.166 66.6782C106.686 66.6782 112.208 66.6808 117.728 66.6731C118.149 66.6731 118.372 66.7293 118.372 67.2196C118.372 73.423 118.394 79.6289 118.407 85.8323C118.407 85.9344 118.38 86.0366 118.364 86.1745H110.725V82.9847H105.448V78.1094H110.653V71.5842C109.183 71.5842 107.772 71.5842 106.358 71.5842C106.004 71.5842 105.65 71.5842 105.293 71.5842C103.805 71.5842 102.969 72.381 102.966 73.8342C102.958 77.2564 102.966 80.676 102.966 84.0982C102.966 84.775 102.966 85.4517 102.966 86.1719H95.2552L95.2499 86.1617Z" fill="white"/>
<path d="M157.295 86.1592V81.4013C158.131 81.4013 158.941 81.4013 159.75 81.4013C161.686 81.4013 162.57 80.5611 162.583 78.684C162.594 77.1747 162.647 75.6628 162.557 74.1586C162.519 73.515 162.253 72.8433 161.926 72.2712C161.744 71.952 161.231 71.6328 160.855 71.6226C158.845 71.5587 156.832 71.5919 154.76 71.5919C154.76 71.9954 154.76 72.3479 154.76 72.7028C154.76 76.7201 154.76 80.7373 154.76 84.7546C154.76 85.7217 154.246 86.2052 153.216 86.2052C151.376 86.2052 149.534 86.2001 147.694 86.2103C147.31 86.2103 147.076 86.172 147.076 85.7072C147.076 79.4374 147.065 73.1677 147.055 66.8953C147.055 66.8545 147.073 66.8136 147.108 66.6731C147.342 66.6731 147.598 66.6731 147.856 66.6731C153.157 66.6731 158.459 66.7063 163.757 66.6578C166.287 66.6348 168.018 67.7432 169.168 69.8016C169.89 71.0939 170.257 72.4909 170.249 73.9594C170.241 76.0203 170.305 78.089 170.137 80.1372C169.967 82.2186 169.027 84.014 167.24 85.3113C166.463 85.8783 165.571 86.195 164.588 86.2001C162.304 86.2129 160.019 86.2052 157.735 86.2001C157.604 86.2001 157.476 86.1745 157.287 86.1541L157.295 86.1592Z" fill="white"/>
<path d="M173.025 86.1514V66.6755C173.31 66.6755 173.59 66.6755 173.869 66.6755C179.014 66.6755 184.155 66.6755 189.299 66.6755C192.702 66.6755 194.816 68.1083 195.714 71.2827C196.808 75.1595 196.302 78.7375 193.027 81.6617C194.028 83.1429 195.021 84.6063 196.076 86.1642C195.738 86.182 195.525 86.205 195.312 86.205C192.918 86.205 190.522 86.1974 188.128 86.2152C187.689 86.2178 187.398 86.1105 187.143 85.7402C185.937 83.9857 184.621 82.295 183.506 80.4895C183.117 79.8586 183.183 78.9699 183.021 78.0863C184.057 78.0863 184.89 78.0863 185.726 78.0863C187.324 78.0863 188.202 77.4044 188.399 75.8695C188.506 75.0548 188.501 74.2095 188.418 73.3922C188.304 72.2481 187.444 71.579 186.259 71.5764C184.597 71.5739 182.933 71.5764 181.272 71.5764C181.099 71.5764 180.928 71.5994 180.688 71.6147C180.688 74.0665 180.688 76.4824 180.688 78.8984C180.688 81.3144 180.688 83.6946 180.688 86.1514H173.025Z" fill="white"/>
<path d="M47.53 86.2103V81.4039C47.8149 81.4039 48.0732 81.4039 48.3288 81.4039C52.0112 81.4039 55.691 81.4039 59.3734 81.4039C60.4065 81.4039 60.8432 80.9723 60.8166 80.0094C60.7926 79.1462 60.4625 78.8193 59.5545 78.8168C57.3818 78.8091 55.2064 78.8142 53.0337 78.8142C50.198 78.8142 48.5045 77.6292 47.7696 74.9936C47.1972 72.9403 47.2611 70.9023 48.4539 69.0278C49.4338 67.4852 50.845 66.6578 52.794 66.6706C57.7386 66.7012 62.6858 66.6808 67.6303 66.6808C67.8939 66.6808 68.1548 66.6808 68.4743 66.6808V71.5817H67.7847C64.0357 71.5817 60.2894 71.5817 56.5404 71.5817C55.5153 71.5817 55.0733 72.0414 55.1771 72.994C55.257 73.7244 55.6058 74.0053 56.4978 74.0078C58.7158 74.0155 60.9337 74.0078 63.1517 74.0104C65.7212 74.0104 67.2788 74.9987 68.0989 77.3509C69.0149 79.9763 68.8684 82.5071 66.8847 84.7111C65.9715 85.725 64.8212 86.2358 63.378 86.2256C58.3669 86.1949 53.3532 86.2154 48.3421 86.2154C48.0812 86.2154 47.8229 86.2154 47.5327 86.2154L47.53 86.2103Z" fill="white"/>
<path d="M92.4378 81.4039V86.2103C92.1608 86.2103 91.9026 86.2103 91.647 86.2103C87.0566 86.2103 82.4635 86.149 77.8731 86.2333C75.0401 86.2869 73.312 84.9257 72.1378 82.6553C71.5653 81.5495 71.3603 80.3543 71.3629 79.1361C71.3709 76.9908 71.3203 74.8404 71.4801 72.7054C71.6186 70.8615 72.4493 69.2347 73.8738 67.9322C74.8004 67.0843 75.9241 66.6834 77.1915 66.6808C82.1387 66.6731 87.0832 66.6783 92.0304 66.6808C92.1395 66.6808 92.2461 66.7012 92.4005 66.7166V71.5766H91.7162C88.3 71.5766 84.8838 71.5766 81.4703 71.5766C79.9633 71.5766 79.1086 72.2942 79.0606 73.7653C79.0021 75.5708 78.9941 77.3815 79.066 79.1846C79.1112 80.2981 79.7609 81.455 81.5555 81.4218C84.9025 81.3605 88.2521 81.4039 91.6017 81.4039C91.8626 81.4039 92.1236 81.4039 92.4378 81.4039Z" fill="white"/>
<path d="M226.957 81.4037V86.2101C226.67 86.2101 226.409 86.2101 226.15 86.2101C222.646 86.2101 219.145 86.1769 215.641 86.2229C213.402 86.251 211.871 85.2064 210.715 83.4979C209.9 82.2925 209.488 80.944 209.474 79.5241C209.432 75.4021 209.44 71.2801 209.432 67.1582C209.432 67.033 209.456 66.9079 209.472 66.7317H217.14C217.14 66.9922 217.14 67.222 217.14 67.4519C217.143 71.2342 217.143 75.0165 217.156 78.7988C217.156 79.1563 217.193 79.5241 217.297 79.8637C217.614 80.9159 218.298 81.4012 219.446 81.4037C221.664 81.4114 223.879 81.4037 226.097 81.4037C226.361 81.4037 226.624 81.4037 226.957 81.4037Z" fill="white"/>
<path d="M229.461 66.7063H237.113V69.6356C237.113 72.6313 237.108 75.6244 237.119 78.6201C237.119 79.0185 237.158 79.4297 237.265 79.8153C237.563 80.8854 238.287 81.4013 239.443 81.4039C241.658 81.409 243.874 81.4039 246.092 81.4039C246.353 81.4039 246.613 81.4039 246.917 81.4039V86.1719C246.672 86.1847 246.419 86.2077 246.166 86.2077C242.731 86.2077 239.297 86.1541 235.862 86.2281C233.34 86.2843 231.681 85.1249 230.481 83.1482C229.762 81.9632 229.45 80.6581 229.437 79.3097C229.402 75.2107 229.418 71.1117 229.415 67.0128C229.415 66.931 229.439 66.8468 229.458 66.7063H229.461Z" fill="white"/>
<path d="M206.605 86.1641H198.984V66.7317H206.605V86.1641Z" fill="white"/>
<path d="M262.818 89.502C262.554 89.7906 262.421 89.949 262.272 90.0946C261.383 90.9527 260.464 91.7878 259.609 92.6765C259.37 92.9268 259.234 93.3175 259.167 93.6649C258.938 94.8473 259.354 95.7769 260.36 96.5354C261.069 97.0692 261.66 97.7485 262.299 98.3691C262.442 98.5096 262.565 98.6679 262.653 98.9054C260.818 98.9131 258.976 99.3115 257.272 98.3768C256.523 97.9656 256.113 97.4114 256.145 96.5227C256.201 94.9316 256.183 93.338 256.151 91.7444C256.137 91.0752 256.401 90.5568 256.973 90.2529C257.564 89.9413 258.209 89.5914 258.859 89.5327C260.099 89.4203 261.361 89.4995 262.818 89.4995V89.502Z" fill="white"/>
<path d="M261.457 94.7478C261.484 94.7274 261.615 94.6176 261.809 94.4541C262.533 95.1411 263.26 95.8256 263.992 96.5202C263.846 96.7322 263.753 96.8701 263.662 97.0029C264.136 97.4396 264.077 98.4101 263.556 98.6399C263.425 98.6961 263.151 98.6323 263.042 98.5276C261.95 97.5034 260.874 96.464 259.812 95.4093C259.695 95.2943 259.594 94.9828 259.658 94.9164C259.855 94.7121 260.126 94.4771 260.387 94.4516C260.683 94.4235 260.999 94.6099 261.457 94.7504V94.7478Z" fill="white"/>
<path d="M261.83 94.002C261.612 93.8232 261.479 93.7134 261.354 93.6113C261.301 93.624 261.261 93.6266 261.226 93.6394C260.936 93.762 260.64 93.9918 260.355 93.979C260.11 93.9688 259.817 93.7211 259.666 93.5015C259.599 93.4044 259.778 93.075 259.924 92.9268C260.843 92.0049 261.78 91.1008 262.722 90.2044C262.917 90.018 263.17 89.8877 263.396 89.7319C263.521 89.9133 263.614 90.1329 263.782 90.2708C264.325 90.7254 263.969 91.0676 263.662 91.4609C263.75 91.5707 263.851 91.701 263.993 91.8797C263.271 92.5872 262.568 93.2767 261.828 94.0046L261.83 94.002Z" fill="white"/>
<path d="M266 94.2115C265.279 94.8653 264.602 95.4783 264.043 95.9865C263.441 95.5064 262.912 95.0952 262.398 94.6636C262.249 94.5384 262.046 94.3622 262.049 94.209C262.049 94.0481 262.241 93.8617 262.392 93.7314C262.845 93.3432 263.319 92.978 263.777 92.5949C263.814 92.5617 263.782 92.4519 263.782 92.1965C264.592 92.9321 265.284 93.5577 266.003 94.209L266 94.2115Z" fill="white"/>
</svg>
